<svg id="グループ_549" data-name="グループ 549" xmlns="http://www.w3.org/2000/svg" xmlns:xlink="http://www.w3.org/1999/xlink" width="200" height="210.222" viewBox="0 0 200 210.222">
  <defs>
    <clipPath id="clip-path">
      <rect id="長方形_247" data-name="長方形 247" width="200" height="210.222" fill="none"/>
    </clipPath>
  </defs>
  <g id="グループ_548" data-name="グループ 548" clip-path="url(#clip-path)">
    <path id="パス_6122" data-name="パス 6122" d="M53.764,146.684a1.868,1.868,0,0,0-.843-.158c-2.035.057-4.241.513-6.247.3-.7-.084-2.938.1-3.18.49-.315.51.043,2.031.482,2.2a18.152,18.152,0,0,0,3.658.038l.12,0c.03.972-.242,3.331-.289,5.661-.031,1.518.031,2.763.331,3.01.332.274.762.714,1.2.674.342-.03,1-.717,1.171-1.074a11.039,11.039,0,0,0,.111-2.568c-.045-2.549-.258-5.467-.267-5.8.959-.011,1.913-.227,2.875-.255.612-.016,1.123-.961,1.206-1.519a1.041,1.041,0,0,0-.328-.99" transform="translate(15.195 51.331)" fill="#fff"/>
    <path id="パス_6123" data-name="パス 6123" d="M57.145,146.975a6.773,6.773,0,0,0-2.633.487c-4.466,1.911-4.767,8.951.147,10.519.4.687,1.886.752,2.609.693,2.17-.192,5.056-3.469,4.91-6.041a10.419,10.419,0,0,0-1.518-4.266,4.818,4.818,0,0,0-3.515-1.392m2.05,7.342a3.883,3.883,0,0,1-2.78,1.72c-.474,0-.682-.124-1.049.184a3.424,3.424,0,0,1-1.3-1.6,3.513,3.513,0,0,1,.3-3.219c.655-.821,1.549-1.813,2.659-1.813a2.425,2.425,0,0,1,2.2,1.156c.371,1.088.536,2.81-.026,3.572" transform="translate(17.89 51.488)" fill="#fff"/>
    <path id="パス_6124" data-name="パス 6124" d="M70.181,146.885c-.244-.56-1.3-.6-1.813-.319-.571.32-.474.991-.541,1.368-.159.925.123,4.815-.05,4.9a21.12,21.12,0,0,1-1.741-1.673c-1.138-1.142-1.453-1.473-2.219-2.274-.489-.508-1.11-1.5-1.683-1.611-.323-.059-1.18-.14-1.452.225a1.559,1.559,0,0,0-.226,1.537c.19.242.2.354.4.566-.009,1.23.108,2.779.108,3.126,0,.378-.054,4.619.367,4.888a1.332,1.332,0,0,0,1.4-.18c1.109-1.022.255-5.546.489-5.675s4.617,5.326,5.335,5.666c.541.253,1.025.421,1.307.253.4-.238.44-1.335.44-2.171,0-.652.042-4.58-.031-6.648a4.252,4.252,0,0,0-.095-1.974" transform="translate(21.137 51.284)" fill="#fff"/>
    <path id="パス_6125" data-name="パス 6125" d="M73.538,146.977c-1.788,0-2.938,1.318-3.793,2.556-.817,1.179-.913,3.936.072,5.808a4.919,4.919,0,0,0,3.215,2c.275.442,1.25.5,1.776.492,3.484-.068,5.5-7.461,2.566-10.1-.77-.694-2.46-.752-3.835-.752m2.614,6.41c-.4,1.1-.775,1.828-1.58,1.911a2.729,2.729,0,0,0-1.25.327c-1.487-.516-2.177-2.934-2.011-3.622.336-1.375,1-2.775,2.491-2.775,2.2,0,3.526.986,2.35,4.159" transform="translate(24.209 51.489)" fill="#fff"/>
    <path id="パス_6126" data-name="パス 6126" d="M87.005,152.22a3.549,3.549,0,0,0,1.739-2.193,4.235,4.235,0,0,0-2.386-3.014c-1.5-.64-5.1-.375-5.986-.19-.728.151-1.815.926-.752,2.412-.039.4.024,1.965.047,2.4l-.078,4.826c0,.876.909,1.587,2.162,1.637.612.639,6.637-.52,7.162-2.811.548-2.385-.061-1.661-1.908-3.068m-4.4,3.4a1.148,1.148,0,0,1-.288.09v-2.256a5.068,5.068,0,0,0,1.669-.038c.876.077,2.454-.246,2.285.9-.132.9-2.7,1.468-3.666,1.307m.5-4.317a1.046,1.046,0,0,0-.789.332c.008-.817.008-1.776,0-2.6,1.466-.157,4.2-.192,4.2,1.148,0,.733-3.185,1.1-3.407,1.115" transform="translate(27.737 51.36)" fill="#fff"/>
    <path id="パス_6127" data-name="パス 6127" d="M94.52,151.96c.546-.7,1.137-1.21,1.16-2a3.336,3.336,0,0,0-1.032-2.327,5.411,5.411,0,0,0-3.834-.978c-.309.023-1.712.039-2.008.108-.739.173-1.237.608-.517,1.954a18.643,18.643,0,0,0,.041,2.093l-.05,5.674c0,.425.9,1.036,1.766,1.082a1.23,1.23,0,0,0,1.261.242,10.02,10.02,0,0,0,2.057-.146c1.464-.436,3.085-1.137,3.223-2.737.081-.952-.731-1.99-2.067-2.961m-3.965-3.208c1.356-.239,2.964.225,2.9.945-.046.49-.913,1.272-2.216,1.412a.92.92,0,0,0-.7.332,24.463,24.463,0,0,1,.019-2.69m.122,7.05c-.138-.054-.005-.485-.1-.613v-2.067a3.292,3.292,0,0,0,1.656.22c.736.069,2.005.575,1.95,1.221-.1,1.132-3.129.7-3.508,1.24" transform="translate(30.807 51.367)" fill="#fff"/>
    <path id="パス_6128" data-name="パス 6128" d="M107.2,156.79c-.362-.1-.662.286-1.408-.213-.481-.321-.4-.417-.655-.632,2.205-1.669,1.978-4.476,1.209-6.487a5.919,5.919,0,0,0-8.315-2.313c-1.546,1.015-2.479,1.923-2.634,3.713a10.045,10.045,0,0,0,.87,4.748c.916,1.326,3.181,3.046,4.433,1.764.108-.112.417.108.578.124a2.993,2.993,0,0,0,1.693-.4,7.049,7.049,0,0,0,2.387,1.627c.385.113,2.663-.486,2.71-.948.074-.679-.506-.884-.867-.986m-3.727-2.306c-.7-.556-2-1.614-2.532-1.184-.8.651-.082,1.56.435,2.1-1.414-.077-2.751-.463-3.183-2.147s-.2-3.341,1.5-4.178c2.034-1,3.777.381,4.526,1.917.631,1.277.855,2.513-.747,3.488" transform="translate(33.411 51.236)" fill="#fff"/>
    <path id="パス_6129" data-name="パス 6129" d="M9.289,134.568a10.89,10.89,0,0,0,5.615-2.174c-.009.319-.034.659-.058,1.017a11.572,11.572,0,0,0,0,2.5h0l0,.011.03.147.011.059.009.047h0c.011.039.02.042.043.045a1.637,1.637,0,0,0,1.495.947,1.657,1.657,0,0,0,.751-.18c1.1-.551.884-2.63.741-4.008-.024-.242-.047-.458-.059-.635a12.749,12.749,0,0,0,3.4,2.05c.369.167.751.342,1.142.541a3.924,3.924,0,0,0,1.7.521,1.688,1.688,0,0,0,.975-.294c.427-.292.621-.6.575-.918-.135-.925-2.287-1.624-3.207-1.923l-.1-.032.232-.1c1.448-.59,2.4-1.048,2.35-1.354a2.242,2.242,0,0,0-1.562-1.237.419.419,0,0,0-.246.072,22.512,22.512,0,0,1-2.528,1.4.37.37,0,0,1-.08.008c-.489,0-1.384-.758-2.1-1.365-.236-.2-.462-.389-.659-.541.305,0,.6.009.889.023.244.009.475.02.706.02a3.577,3.577,0,0,0,1.954-.487c1.067-.65,1.308-2.248,1.468-3.308l.012-.082c.132-.868.15-1.438-.15-1.786-.253-.294-.722-.425-1.525-.425h-.023c-1.242,0-2.242.026-3.3.047-.6.012-1.229.024-1.935.035-.563.009-1.06.015-1.564.015-.791,0-1.53-.012-2.467-.026l-.123,0c-.807-.008-1.311.016-1.583.307a1.493,1.493,0,0,0-.23,1.168l.014.23c.074,1.192.212,3.41,1.269,3.975a4.063,4.063,0,0,0,1.935.394c.288,0,.581-.015.864-.027.244-.011.5-.023.739-.026a10.276,10.276,0,0,1-3.646,2.343,5.076,5.076,0,0,1-1.1.178c-1,.1-2.135.207-2.285,1.059a1.523,1.523,0,0,0,.231,1.281,1.726,1.726,0,0,0,1.383.483m3.443-9.31c1.317-.031,2.487-.062,3.659-.095s2.35-.065,3.67-.095c-.035.189-.055.385-.076.591a3.421,3.421,0,0,1-.3,1.287c-.069.124-.455.336-2.259.336-.381,0-.721-.009-.924-.015l-.113,0h-.1c-.19,0-.483.007-.814.005-1.306,0-2.047-.112-2.2-.332a5.379,5.379,0,0,1-.541-1.623l.016-.005Zm2.115,10.669.031-.011H14.9Z" transform="translate(2.675 43.136)" fill="#fff"/>
    <path id="パス_6130" data-name="パス 6130" d="M9.156,124.8a4.332,4.332,0,0,0,1.321.165c.212,0,.427-.007.636-.015s.415-.012.618-.012c2.156,0,4.378-.018,6.788-.051h.1c.269,0,.581.012.911.023.4.015.806.03,1.23.03a5.451,5.451,0,0,0,2.9-.581c.566-.406.6-.779.529-1.022a1.866,1.866,0,0,0-1.633-.959c-.271-.014-.55-.019-.851-.019-.776,0-1.568.045-2.332.086-.389.022-.791.043-1.186.061-.028-.637-.055-1.276-.082-1.912h.007c.24,0,.527.018.829.038.347.023.741.049,1.122.049a2.805,2.805,0,0,0,2.034-.594.993.993,0,0,0,.194-.863,1.245,1.245,0,0,0-.6-.887,2.54,2.54,0,0,0-1.152-.215c-.167,0-.335.007-.5.012s-.309.012-.455.012h-.073c-.525-.009-1.373-.015-1.595-.016,0-.355,0-2.239-.493-2.726a1.968,1.968,0,0,0-1.341-.537,1.4,1.4,0,0,0-.92.313c-.7.594-.672,1.949-.654,2.844,0,.084,0,.165.005.238-.169,0-.35-.012-.539-.02-.346-.016-.7-.032-1.068-.032a4.512,4.512,0,0,0-2.289.465,1.5,1.5,0,0,0-.587,1.288.6.6,0,0,0,.406.541,6.944,6.944,0,0,0,2.188.254c.625,0,1.265-.032,1.83-.061l.255-.012c-.132,1.218-.228,1.708-.258,1.842-.215-.007-1.186-.042-2.26-.042a13.376,13.376,0,0,0-3.288.243.85.85,0,0,0-.6.866,1.322,1.322,0,0,0,.845,1.211" transform="translate(2.911 40.237)" fill="#fff"/>
    <path id="パス_6131" data-name="パス 6131" d="M6.968,122.071a.07.07,0,0,0,.043.02v.008l.335.041c.047.005.1.012.159.018h.009a1.136,1.136,0,0,0,.246.019c.417,0,.685-.14.753-.4a4.651,4.651,0,0,0-.629-2.949c-.772-1.368-2.616-1.853-3.96-1.853-.117,0-.236,0-.351.009a1.2,1.2,0,0,0-1.084.528c-.226.45-.02,1.171.61,2.146a6.048,6.048,0,0,0,3.87,2.41" transform="translate(0.841 40.98)" fill="#fff"/>
    <path id="パス_6132" data-name="パス 6132" d="M27.767,137.857c-1.77,0-3.94.14-5.237.224-.6.038-1.041.068-1.213.068a21.761,21.761,0,0,1-7.394-1.206c-.763-.28-1.842-.568-2.884-.848a13.713,13.713,0,0,1-3.848-1.34,2.56,2.56,0,0,0,.633-2.314c0-.045-.009-.085-.014-.123a1.953,1.953,0,0,0-.637-1.114,1.52,1.52,0,0,1-.574-1.152,4.8,4.8,0,0,1,.753-2.128,7.957,7.957,0,0,0,.725-1.573c.362-1.149.513-1.973.144-2.532a1.832,1.832,0,0,0-1.448-.667l-.259-.026a28.533,28.533,0,0,0-2.848-.189,7.414,7.414,0,0,0-2.339.3A2.164,2.164,0,0,0,.1,125.393a.908.908,0,0,0,1,.789h.1a7.1,7.1,0,0,0,.864-.153,9.491,9.491,0,0,1,1.815-.263,1.244,1.244,0,0,1,.959.293.808.808,0,0,1,.159.648,5.347,5.347,0,0,1-.478,1.737,7.227,7.227,0,0,0-.475,1.422,2.132,2.132,0,0,0,.247,1.963,5,5,0,0,0,.39.578,2.379,2.379,0,0,1,.6,1.241c.034.943-1.72,1.846-3,2.506A10.756,10.756,0,0,0,1,136.884a2.038,2.038,0,0,0-.957,1.992c.144.5.641.806,1.4.866.054,0,.109.005.165.005,1.789,0,3.95-2.178,4.212-2.448.365.111,3.734,1.142,4.678,1.606a32.067,32.067,0,0,0,13.591,3.353,10.017,10.017,0,0,0,3.92-1,5,5,0,0,0,2.856-2.724.249.249,0,0,0-.042-.231c-.226-.3-1.225-.447-3.054-.447" transform="translate(0 43.067)" fill="#fff"/>
    <path id="パス_6133" data-name="パス 6133" d="M37.724,120.386c.19,0,.374-.005.543-.012.122,0,.235-.008.336-.008.487,0,1.265-.049,2.088-.1.925-.054,1.882-.109,2.506-.109a3.334,3.334,0,0,1,.57.032.141.141,0,0,1,.12.105c.107.405-.911,1.673-1.122,1.858-.138.117-.257.234-.373.344-.363.35-.625.6-1.022.6a1.5,1.5,0,0,1-.636-.171c-.182-.086-.365-.182-.541-.275a5.78,5.78,0,0,0-1.384-.586.7.7,0,0,0-.886.377,1.3,1.3,0,0,0,.3,1.291,11.888,11.888,0,0,0,1.219.984,10.959,10.959,0,0,1,1.3,1.061l.154.157a3.214,3.214,0,0,0,2.089,1.248,1.594,1.594,0,0,0,1.5-1.53c.093-.614-.443-1.107-.916-1.542-.1-.089-.19-.174-.273-.257a20.923,20.923,0,0,0,4.815-4.736,1.223,1.223,0,0,0-.184-1.117,1.716,1.716,0,0,0-1.241-.947c-1.348,0-8.846.248-9.892.6a1.605,1.605,0,0,0-.906.88,1.388,1.388,0,0,0-.055,1.1c.284.659,1.16.743,1.892.743" transform="translate(12.521 41.009)" fill="#fff"/>
    <path id="パス_6134" data-name="パス 6134" d="M49.316,127.8c.319-.478.66-1.142.475-1.591-.255-.624-1.241-1.619-1.926-1.619-.79,0-1.7.084-2.586.163-.674.062-1.311.12-1.895.143-1.485.062-3,.068-4.46.074h-.532c-.153,0-.316,0-.486-.009s-.379-.011-.575-.011a2.549,2.549,0,0,0-2.22.794,2.409,2.409,0,0,0-.351,1.953,1.1,1.1,0,0,0,.9.64,10.037,10.037,0,0,0,1.737.127,25.57,25.57,0,0,0,2.807-.18c.009.69.024,1.468.041,2.278.061,3.175.144,7.524-.078,7.733l-.014.014a2.731,2.731,0,0,1-1.565.6c-.867.171-1.849.366-2.162,1.123a.46.46,0,0,0,.05.456c.4.594,2.079.948,3.477.948.7,0,2.37-.092,2.772-.94.655-.307.726-1.722.726-2.321,0-2.661-.014-9.562-.015-10.215.115-.012.432-.049.982-.127.755-.108,1.028-.128,1.627-.174l.374-.028a16.373,16.373,0,0,1-1.95,3.5c-.076.113-.134.2-.169.255l-.054.085h.1c1.358,0,3.867-2.021,4.968-3.674" transform="translate(12.143 43.645)" fill="#fff"/>
    <path id="パス_6135" data-name="パス 6135" d="M38.344,117.8c-.289-.482-.743-.548-1.371-.639-.092-.014-.188-.027-.286-.043a12.425,12.425,0,0,0-1.88-.116c-.374,0-.671.008-.814.012l-.074,0c-.311-.007-.643-.009-.988-.009-2.008,0-4.171.105-5.632.192-.193.011-.415.005-.647,0-.135,0-.275-.005-.416-.005a2.591,2.591,0,0,0-1.327.255c-.358.228-.347.936-.339,1.4,0,.076,0,.144,0,.2a28.05,28.05,0,0,0,.329,4.091c.054.419.109.843.161,1.281.036.3.068.708.1,1.137.109,1.395.244,3.131.655,3.607.451.524,3.239.564,4.083.564.177,0,.335,0,.47,0-.012.729-.012,1.518-.011,1.728-.135,0-.509-.008-.991-.008a24.823,24.823,0,0,0-3.48.174c-.528.1-.76.726-.712,1.271a1.248,1.248,0,0,0,1.291,1.2h.046c1.156-.032,3.35-.13,3.716-.146l.1,2.139c-.351.08-2.741.616-3.663.77-1.1.181-2.336.39-2.516,1.849a2.44,2.44,0,0,0,.328,1.836,1.184,1.184,0,0,0,.937.374h.046a12.866,12.866,0,0,0,3.854-1.059c.487-.186.947-.362,1.367-.5,1.349-.442,3.154-1.138,4.709-1.816l.221-.095c.577-.243,1.294-.544,1.464-1.024a.7.7,0,0,0-.065-.579,1.865,1.865,0,0,0-1.705-.713,5.666,5.666,0,0,0-1.755.3c-.063-.582-.2-1.519-.235-1.761.45-.016,3.141-.166,3.229-1.126a1.069,1.069,0,0,0-.221-.851,2.256,2.256,0,0,0-1.672-.375c-.612.009-1.3.027-1.492.03l-.057-1.71c.111,0,.377.014.718.014a14.974,14.974,0,0,0,1.639-.082,3.5,3.5,0,0,0,1.695-.528,2.85,2.85,0,0,0,.408-1.123,43.881,43.881,0,0,0,.516-4.571c.02-.262.038-.5.055-.708.024-.285.05-.543.076-.793.053-.513.1-1,.113-1.61,0-.182.031-.432.061-.7a3.691,3.691,0,0,0-.039-1.742m-5.372,4.33c-.015-.9-.046-2.3-.053-2.589L35.4,119.5c-.023.338-.146,2.079-.18,2.72l-1.907-.077v0Zm2,2.036c-.014.358-.092,2.344-.108,2.742-.64-.011-1.681-.05-1.919-.058l-.09-2.7.713.024Zm-7.546-4.414c.22-.011.531-.016.924-.016.76,0,1.618.02,1.834.026l-.035,2.343-2.448.023Zm.726,7.014L27.9,124.45s-.005-.051-.012-.108l-.012-.1c.408-.012.79-.018,1.16-.022.4-.005.817-.009,1.261-.023,0,.517.054,2.263.066,2.59-.184.005-.8.023-1.1.023h-.085c-.024,0-.081,0-.157,0a5.45,5.45,0,0,1-.867-.042" transform="translate(8.447 40.987)" fill="#fff"/>
    <path id="パス_6136" data-name="パス 6136" d="M54.6,124.909c.982,0,3.364-1.329,2.468-2.543a5.139,5.139,0,0,0-2.652-1.323c-1.034-.329-1.953-1.053-3.014-1.28-1.406-.294-3.381.668-1.92,2.071,1.376,1.315,3.05,3.075,5.118,3.075" transform="translate(17.155 41.937)" fill="#fff"/>
    <path id="パス_6137" data-name="パス 6137" d="M62.165,121.545c1.664.014,1.153-2.277.529-3.049a5.015,5.015,0,0,0-3.96-1.583c-1.858-.023-.514,1.34.108,2.242.748,1.082,1.874,2.39,3.323,2.39" transform="translate(20.244 40.957)" fill="#fff"/>
    <path id="パス_6138" data-name="パス 6138" d="M64.751,119.522c.606,0,1.074-.686,1.375-1.123.455-.662-.111-1.456-.523-1.989-.8-1.021-1.966-1.194-3.221-1.379-1.764-.262-.379,1.873.09,2.5.521.686,1.245,1.994,2.278,1.994" transform="translate(21.549 40.29)" fill="#fff"/>
    <path id="パス_6139" data-name="パス 6139" d="M52.992,129.283a2.312,2.312,0,0,0,2.092-1.511c.471-1.475-3.112-2.743-4.086-2.909-.747-.127-3.215-.509-2.938.878.328,1.622,3.316,3.542,4.933,3.542" transform="translate(16.829 43.691)" fill="#fff"/>
    <path id="パス_6140" data-name="パス 6140" d="M61.176,120.343c-1.716,0,1.128.011,0,0" transform="translate(21.233 42.159)" fill="#fff"/>
    <path id="パス_6141" data-name="パス 6141" d="M67.973,124.516c.1-.96.46-3-.983-3.127-.929-.082-1.421.579-1.623,1.373-1.275,5.035-3.2,10.608-8.446,12.747a16.855,16.855,0,0,1-4.692.8c-.951.08-2.656-.009-3.393.683-1.982,1.868.309,3.55,2.4,3.55,5.211,0,11.443-2.421,13.854-7.239a29.9,29.9,0,0,0,2.879-8.785" transform="translate(16.842 42.523)" fill="#fff"/>
    <path id="パス_6142" data-name="パス 6142" d="M71.754,125.561c1.716.111,1.773-2.017,1.117-3.091a6.088,6.088,0,0,0-4.541-2.624,2.351,2.351,0,0,0-2.111.706c-.425.686.386,1.97.79,2.513a6.994,6.994,0,0,0,4.745,2.5" transform="translate(23.156 41.981)" fill="#fff"/>
    <path id="パス_6143" data-name="パス 6143" d="M83.611,119.745c-.866.235-1.234,1.261-1.458,2.015-1.3,4.32-2.166,9.548-6.106,12.465a11.418,11.418,0,0,1-4.678,2c-1.227.2-3.054-.053-4.209.37a1.9,1.9,0,0,0-1.009,2.853c.857,1.026,2.32,1.173,3.57,1.253a13.209,13.209,0,0,0,8.317-2.58,15.171,15.171,0,0,0,4.945-7.043c1.211-3.239,2.509-6.631,2.6-10.1.027-1.088-.986-1.492-1.967-1.226" transform="translate(23.051 41.921)" fill="#fff"/>
    <path id="パス_6144" data-name="パス 6144" d="M97.434,120.935c1.15.227.479-2.125.238-2.532-.7-1.15-1.773-2.178-3.141-1.976-1.4.213-1.892,1.021-1.111,2.183a5.682,5.682,0,0,0,4.015,2.324" transform="translate(32.597 40.778)" fill="#fff"/>
    <path id="パス_6145" data-name="パス 6145" d="M96.416,119.765c-1.29-.089.622.122,0,0" transform="translate(33.616 41.948)" fill="#fff"/>
    <path id="パス_6146" data-name="パス 6146" d="M86.868,126.711c.775-.158,2.341-.343,3.115-.514.355-.081,1.074,3.154,1.165,3.577-1.826.274-4.128.6-5.939.949-1.1.208-2.809.628-2.668,2.109.274,2.891,6.357,1.113,7.948.8.872-.171,1.418-.312,1.418-.312s.454,2.266.728,3.192.478,1.851.716,2.776c.4,1.583,1.426,4.432,3.154,3.862s1.545-2.532,1.1-3.693c-.87-2.258-1.2-4.314-1.849-6.641,2.418-.463,4.808-.728,6.6-1.645,1.638-.841.421-2.711-1.024-2.8a36.2,36.2,0,0,0-6.216.907s-.934-2.814-1.238-3.905c.948-.135,7.531-.957,5.987-3.162-.82-1.168-1.774-.968-2.875-.714-.182.042-4.029.917-4.056.83-.44-1.506-.7-2.576-1.173-4.07a1.993,1.993,0,0,0-2.679-1.065c-1.173.6-.76,2.269-.548,3.21.12.533.617,2.455.617,2.455s-2.221.575-3.036.663a6.527,6.527,0,0,0-3.05.986c-.443.4-.857,1.614-.343,2.131.988,1,2.98.309,4.152.072" transform="translate(28.894 40.992)" fill="#fff"/>
    <path id="パス_6147" data-name="パス 6147" d="M100.113,119.6c-.208-.009-.307-.009.086.019.879.034.436.005.063-.012,1.167-.035.5-1.966.251-2.6-.42-1.076-1.065-2.225-2.236-2.41-1.435-.23-2.443.586-1.5,1.976.755,1.115,1.954,2.869,3.331,3.033" transform="translate(33.775 40.13)" fill="#fff"/>
    <path id="パス_6148" data-name="パス 6148" d="M115.217,134.263c-.947-1.1-2.574-2.856-2.574-2.856a41.918,41.918,0,0,0,2.822-5.138,23.682,23.682,0,0,0,1.692-6.116c.063-1.33-2.067-1.5-2.972-1.34a38.227,38.227,0,0,1-9.691.421c-1.106-.08-2.042.014-2.528,1.153a1.9,1.9,0,0,0,.7,2.537c1.314.579,3.141.281,4.533.224,1.688-.072,3.373-.224,5.049-.447-.467,4.281-3.379,8.375-6.256,11.436a18.524,18.524,0,0,1-4.671,3.489c-1.214.686-1.71,3.191.211,3.221,3.645.055,6.96-4.164,9.139-6.577a54.672,54.672,0,0,1,3.742,4.006,7.879,7.879,0,0,0,2.875,2.328c.559.235,1.691.66,2.158.043.654-.855-.367-2.25-.934-2.857-1.094-1.184-2.25-2.3-3.3-3.528" transform="translate(35.12 41.606)" fill="#fff"/>
    <path id="パス_6149" data-name="パス 6149" d="M132.964,122.357a9.943,9.943,0,0,0-3.578.116c-1.2.111-2.1.144-3.292.261.261-1.627.825-3.943.539-5.581-.19-1.072-3.373-1.268-3.63.367s-.866,5.343-.866,5.343-2.56.224-3.573.188c-1.348-.046-2.067-.163-2.443,1.348-.751,3.05,3.353,2.275,4.985,2.131a34.785,34.785,0,0,1-1.786,5.124,23.561,23.561,0,0,1-1.584,2.925c-.462.8-2.693,3.623-1.485,4.179,2.983,1.375,4.363-1.843,4.942-2.76a26.979,26.979,0,0,0,2.8-6.206c.442-1.179,1.179-3.431,1.179-3.431s4.895-.573,5.077-.259c.385.652-.371,4.717-.733,6.689a45.575,45.575,0,0,1-1.907,6.7c-.432,1.056-1.068,1.923-1,2.717s1.574,1.042,3.122.343c2.071-.933,3.782-9.425,4.1-12.237.2-1.7,1-3.838.91-5.71-.042-.918-1.489-2.161-1.785-2.25" transform="translate(40.601 40.749)" fill="#fff"/>
    <path id="パス_6150" data-name="パス 6150" d="M152.577,118.624c-1.458-.282-2.042.648-2.445,1.9a57.64,57.64,0,0,1-3.285,8.458c-1.438,2.859-2.911,5.454-6.746,6.775-1.786.616-7.081.34-7.4,2.979-.2,1.677,1.936,2.3,5.069,2.209,5.728-1.01,6.834-2.159,8.7-4.035,2.6-2.617,6.224-12.089,6.838-15.188.177-.9.625-2.833-.725-3.1" transform="translate(46.482 41.539)" fill="#fff"/>
    <path id="パス_6151" data-name="パス 6151" d="M135.469,124.978c2.186.957,3.595.351,3.969-.253.558-.9-.35-2.606-.988-3.242-1.221-1.2-2.231-2.047-4.077-1.627-2.994.681-1.09,4.167,1.1,5.122" transform="translate(46.532 41.95)" fill="#fff"/>
    <path id="パス_6152" data-name="パス 6152" d="M93.144,145.724A72.862,72.862,0,1,1,166.01,72.863a72.944,72.944,0,0,1-72.866,72.861m0-142.617A69.756,69.756,0,1,0,162.9,72.863,69.837,69.837,0,0,0,93.144,3.107" transform="translate(7.104)" fill="#fff"/>
    <path id="パス_6153" data-name="パス 6153" d="M113.224,24.707c-1.276,0-2.223-.459-2.294-1.823-.069-1.258.732-1.277,1.534-1.831,2.653-1.834-4.506-5.085-5.343-5.489A57.327,57.327,0,0,0,85.065,9.427,51.25,51.25,0,0,0,63.445,13.5c-1.888.766-3.743,1.611-5.566,2.52A12.878,12.878,0,0,0,53.5,18.909c-.556.681-.824,1.9.231,2.252a1.846,1.846,0,0,1,.986,2.826c-.654.99-2.429.86-3.33.367a4.144,4.144,0,0,1-2.077-3.524c0-2.244,1.207-3.788,3.042-5.026,6.224-4.2,14.095-6.7,21.432-7.982a54.264,54.264,0,0,1,21.949.736A64.334,64.334,0,0,1,106.675,12.2c3.009,1.315,7.061,2.832,9.061,5.571,1.647,2.258.944,6.933-2.512,6.933" transform="translate(17.275 2.464)" fill="#fff"/>
    <path id="パス_6154" data-name="パス 6154" d="M33.846,83.419a4.932,4.932,0,0,1-4.294-2.846c-1.634-3.23-1.85-7.537-2.105-11.09a59.235,59.235,0,0,1,2.634-22.937A59.851,59.851,0,0,1,41.327,27.062c2.275-2.682,4.983-6.045,8.194-7.62,2.58-1.265,6.679-.047,6.753,3.316.027,1.227-.735,2.791-2.146,2.6-1.58-.211-1.295-1.051-1.716-2.162-1.141-3.006-6.441,3-7.174,3.775A57.006,57.006,0,0,0,32.9,45.75a51.05,51.05,0,0,0-2.814,21.413c.13,1.99.344,3.974.628,5.948A16.255,16.255,0,0,0,32,78.342c.4.766,1.248,1.66,2.177,1.044.475-.315.628-.874,1.246-1.052a2.155,2.155,0,0,1,1.866.636c.713.74.352,2.121-.144,2.878a3.96,3.96,0,0,1-3.293,1.572" transform="translate(9.554 6.64)" fill="#fff"/>
    <path id="パス_6155" data-name="パス 6155" d="M82.068,112.3a41.421,41.421,0,0,1-11.047-1.954,64.293,64.293,0,0,1-10.773-4.162A56.506,56.506,0,0,1,42.567,92.615a64.337,64.337,0,0,1-6.775-9.332c-1.723-2.886-4.1-6.494-4.283-9.941A4.734,4.734,0,0,1,34.4,68.69a3.369,3.369,0,0,1,4.14,1.144c.924,1.406-.7,3.044-2.155,2.564-3.179-1.038-.293,5.434.035,6.074a72.78,72.78,0,0,0,5.96,9.787,49.014,49.014,0,0,0,14.913,13.6,59.907,59.907,0,0,0,21.033,7.169c1.453.228,3.406.575,4.776-.15,1.831-.967-.575-2.373.347-3.638a2.084,2.084,0,0,1,3.6.166,4.044,4.044,0,0,1,.027,4.549,5.574,5.574,0,0,1-5.007,2.346" transform="translate(11.036 23.968)" fill="#fff"/>
    <path id="パス_6156" data-name="パス 6156" d="M81.014,112.3c-2.306,0-4.441-.867-5.428-3.058a4.141,4.141,0,0,1,.67-4.117c1.051-1.125,3.558-1.265,3.616.817.03,1.028-1.368,1.885-.123,2.794,1.3.951,3.543.523,5,.294a65.781,65.781,0,0,0,11.183-2.714,50.755,50.755,0,0,0,17.973-10.4,61.294,61.294,0,0,0,12.748-17.445,11.8,11.8,0,0,0,1.583-4.345c.049-.7-.334-2.1-1.335-1.792a1.851,1.851,0,0,1-2.625-1.628c-.1-1.73,2.316-2.491,3.65-2.229a4.663,4.663,0,0,1,3.64,4.293c.167,3.338-2.219,6.943-3.823,9.722a59.745,59.745,0,0,1-34.817,27.6A42.61,42.61,0,0,1,81.014,112.3" transform="translate(26.381 23.97)" fill="#fff"/>
    <path id="パス_6157" data-name="パス 6157" d="M122.148,83.426a3.813,3.813,0,0,1-3.462-1.881c-.648-1.346-.14-3.83,1.924-3.195.941.29,1.348,1.781,2.526,1.041,1.044-.656,1.4-2.262,1.646-3.364a57.443,57.443,0,0,0,.34-23.124,48.025,48.025,0,0,0-8.739-19.247,64.157,64.157,0,0,0-8.133-9.19,6.674,6.674,0,0,0-3.306-2.021c-1.786-.207-1.056,1.554-1.82,2.4a1.918,1.918,0,0,1-2.59.1,3.356,3.356,0,0,1,.1-4.43c2.205-2.676,5.685-1.541,7.949.359a59.5,59.5,0,0,1,14.039,18.008,54.5,54.5,0,0,1,5.936,21.563,64.14,64.14,0,0,1-.28,11.875c-.359,3.057-.558,7.3-2.8,9.664a4.831,4.831,0,0,1-3.335,1.445" transform="translate(34.943 6.632)" fill="#fff"/>
    <path id="パス_6158" data-name="パス 6158" d="M54.39,80.2c-2.352,0-.916-2.946-.208-4.008.456-.685,1.078-1.26,1.576-1.916.716-.944,1.23-2.011,1.962-2.946,1.294-1.654,2.367-3.4,3.58-5.111.934-1.311,3.075-4.467,4.958-4.066,2.034.432.455,2.752-.136,3.781a43.024,43.024,0,0,1-3.252,4.7c-1.41,1.828-3.061,3.322-4.047,5.439a16.558,16.558,0,0,1-1.858,2.278c-.662.924-1.3,1.847-2.575,1.847" transform="translate(18.601 21.76)" fill="#fff"/>
    <path id="パス_6159" data-name="パス 6159" d="M91.755,42.551c-1.184,0-2.76-2.26-1.248-2.879,1.768-.721,3.35-1.878,5.223-2.319a10.27,10.27,0,0,0,2.354-1.211,5.855,5.855,0,0,1,1.342-.319,4.467,4.467,0,0,0,1.557-.941c1.8-1.3,4.409-1.931,6.472-2.71,1.928-.728,2.413,1.989.918,2.875-1.569.929-3.374,1.52-4.987,2.409-1.927,1.059-3.956,1.846-5.925,2.814-1.611.793-3.851,2.281-5.706,2.281" transform="translate(31.489 11.228)" fill="#fff"/>
    <path id="パス_6160" data-name="パス 6160" d="M90.472,52.187a1.661,1.661,0,0,1-1.782-2.2c.444-1.346,2-1.526,3.1-2.139,1.233-.693,2.587-.863,3.771-1.65a5.954,5.954,0,0,1,1.951-.926,8.111,8.111,0,0,0,1.9-.383c.425-.211.78-.537,1.21-.743.583-.277,1.269-.212,1.85-.506s.9-.906,1.488-1.183a18.181,18.181,0,0,1,1.93-.717c1.371-.475,2.391-1.392,3.694-1.965a27.113,27.113,0,0,1,2.68-.972c.9-.288,2.371-.182,2.7.926.307,1.051-1.893,2.209-2.613,2.559a9.507,9.507,0,0,1-1.727.338,6.663,6.663,0,0,0-1.564.907c-.579.334-1.26.424-1.842.753a20.162,20.162,0,0,0-2.062,1.388,6.348,6.348,0,0,1-1.313.882c-.548.219-1.157.205-1.691.471-1.264.621-2.391,1.414-3.7,2a28.824,28.824,0,0,1-3.985,1.731c-1.323.365-2.6,1.435-3.99,1.435" transform="translate(31.034 13.545)" fill="#fff"/>
    <path id="パス_6161" data-name="パス 6161" d="M102.834,75.272c-1.7-.13-2.46-.92-3.357-2.25a16.511,16.511,0,0,0-1.782-1.943c-.618-.66-.916-1.5-1.507-2.171a21.134,21.134,0,0,1-1.738-1.723c-.458-.662-1.052-1.2-1.554-1.823-.559-.7-1.067-1.427-1.622-2.127a6.046,6.046,0,0,1-.8-1.044,3.883,3.883,0,0,0-.83-1.488c-1.2-1-.382-2.618.685-3.208,1.468-.812,3.085-1.492,4.623-2.162,3.874-1.688,7.729-3.284,11.518-5.173,1.755-.874,3.5-1.776,5.323-2.51,1.642-.659,3.28-2.021,5.046-2.282,2.108-.312,2.386,1.735.914,2.788a18.92,18.92,0,0,1-2.3,1.179c-.93.492-1.786,1.113-2.738,1.562-1.56.735-3.2,1.2-4.76,1.92-1.619.724-3.131,1.627-4.694,2.463-1.764.945-3.632,1.677-5.467,2.468-1.206.52-3.042.922-3.782,2.105-.849,1.36,1.932,3.18,2.645,4.085a7.69,7.69,0,0,0,1.742,1.8c.8.563,1.11,1.527,1.742,2.24a19.539,19.539,0,0,1,1.7,2.389c.465.691,1.344.94,1.765,1.668.442.758.737,3.38-.766,3.241" transform="translate(31.196 15.882)" fill="#fff"/>
    <path id="パス_6162" data-name="パス 6162" d="M41.017,71.153c-.821,0-.541-1.5-.382-1.939a6.222,6.222,0,0,1,1.723-2.286,46.667,46.667,0,0,0,4.035-3.971c.733-.874.523-1.123-.609-1.525-1.87-.662-3.9-.668-5.781-1.29-.991-.327-3.96-2.036-2.57-3.381,1.512-1.462,3.493.244,5.068.492a61.544,61.544,0,0,1,7.289,1.68,13.568,13.568,0,0,1,2.007.589A1.412,1.412,0,0,1,52.434,61a11.348,11.348,0,0,1-1.714,1.778c-1.06,1.121-2.169,2.263-3.167,3.442-1.558,1.843-3.811,4.93-6.537,4.93" transform="translate(12.986 19.679)" fill="#fff"/>
    <path id="パス_6163" data-name="パス 6163" d="M89.353,36.627c-.759-.377-.794-2.6-.83-3.287a30.731,30.731,0,0,1,.144-4.556c.078-.809-.09-1.588-.063-2.393.024-.647.429-1.206.443-1.857.012-.74-.686-3.639.668-3.639,3.334.18,2.622,2.932,2.56,5.439-.012.487-.644,6.04.28,5.825a28.632,28.632,0,0,0,3.2-.862c1.006-.358,1.943-1.419,2.969-1.55,1.271-.161,2.379-1.015,3.7-.693a1.769,1.769,0,0,1,.783,2.417c-.541.848-2.29.89-3.156,1.191-1.677.585-3.295,1.321-4.925,2.023-1.677.721-3.94,1.939-5.771,1.94" transform="translate(31 7.32)" fill="#fff"/>
    <path id="パス_6164" data-name="パス 6164" d="M64.537,37.215a12.622,12.622,0,0,1-3.582-.874c-1.475-.532-2.921-1.133-4.406-1.65-1.534-.535-3-1.233-4.474-1.9-1.21-.548-2.711-.731-3.808-1.48-1.446-.988.816-1.723,1.624-1.9a5.859,5.859,0,0,1,3.966.736c2.454,1.25,5.25,1.56,7.656,2.94a8.776,8.776,0,0,1-.365-3.037c.072-1.387-.095-2.747-.041-4.129a17.277,17.277,0,0,1,.217-3.769c.34-1.24,2.178-2.884,3.1-1.175a7.762,7.762,0,0,1,.5,4c-.082,1.916-.109,3.862-.112,5.781,0,.685.6,6.46-.28,6.46" transform="translate(16.743 7.09)" fill="#fff"/>
    <path id="パス_6165" data-name="パス 6165" d="M64.9,52.412a2.469,2.469,0,0,1-2.221-2.548c.078-1.722.965-2.548,2.6-2.98.882-.234,1.789-.255,2.678-.44a14.644,14.644,0,0,1,2.923-.629,6.743,6.743,0,0,0,1.857-.324,13.253,13.253,0,0,1,2.568-.317c1.719-.161,1.286-1.492,1.177-2.744-.081-.943.469-3.82-.1-4.282-1.669-.108-3.376.058-5.053.019-1.06-.023-4.472.023-4.673-1.556-.211-1.66-.59-3.3-.824-4.958a36.762,36.762,0,0,1,.054-3.986c-.041-1.453-.42-3.69.289-5.02.547-1.028,2.4-2.285,3.62-1.772,1.15.485.539,2.776.629,3.7.18,1.792-.555,3.608-.32,5.419.113.89.135,3.152,1.047,3.669.98.555,2.448-.02,3.554,0,1.947.039,2.312-1.036,2.1-2.76-.113-.87-.18-1.749-.275-2.621a18.364,18.364,0,0,1,.161-3.249,38.566,38.566,0,0,0-.1-4.085c-.07-1.508-.224-2.968,1.2-3.9,1-.656,3.341-1.021,3.68.547.4,1.849-.266,3.955.259,5.731a15.465,15.465,0,0,1,.185,4.906c-.049,1.045-.35,2.055-.369,3.107-.014.79.03,1.581-.008,2.373,1.321-.022,2.637.066,3.959,0,1.753-.072,2.626-.613,2.915-2.393a33.48,33.48,0,0,0-.038-4.683,20.576,20.576,0,0,0-.1-2.216c-.05-.6.1-1.165.074-1.754-.027-.5-.505-1.456.211-1.734a3.753,3.753,0,0,1,2.19.305c1.761.621,1.71,2.03,1.547,3.638a19.185,19.185,0,0,0-.005,4.754,15.362,15.362,0,0,1-.069,2.671,14.171,14.171,0,0,1-.185,3.169c-.712,3.183-5.389,3.369-7.922,3.037-.7-.086-2.247-.454-2.381.55-.116.884.2,1.705.146,2.58a6.478,6.478,0,0,0-.117,2.305c.5,1.627,2.545.82,3.753,1.063.992.2,1.931.591,2.919.8.722.151,1.468.151,2.188.315.812.182,1.537.432,2.366.564.764.123,1.129.774,1.813,1.056s1.171.439,1.349,1.207a4.352,4.352,0,0,1-.09,2.482c-.524,1.421-2.093.968-3.269.7-1.362-.309-2.525-1.019-3.933-1.273a56.054,56.054,0,0,0-8.877-1.227,30.936,30.936,0,0,0-3.794.058,6.108,6.108,0,0,0-2.055.442c-.689.308-1.237.046-1.922.211q-1.276.316-2.543.681c-1.534.405-3.146,1.392-4.759,1.392" transform="translate(21.957 5.776)" fill="#fff"/>
    <path id="パス_6166" data-name="パス 6166" d="M64.5,43.6a6.783,6.783,0,0,1-2.429-.671A33.19,33.19,0,0,1,58.8,41.72a45.035,45.035,0,0,0-7.853-2.74,41.2,41.2,0,0,1-6.71-2.722c-.65-.332-1.759-.737-1.383-1.669a4.313,4.313,0,0,1,2.093-1.93c.943-.432,2.377.108,3.341.266a13.622,13.622,0,0,1,3.495,1.361,23.318,23.318,0,0,0,3.943,1.148A27.869,27.869,0,0,1,58.5,36.527a23.175,23.175,0,0,0,2.834.945A21.031,21.031,0,0,1,65.1,39.084c.984.429,1.067,1.16.9,2.142-.135.78-.443,2.375-1.491,2.375" transform="translate(14.988 11.384)" fill="#fff"/>
    <path id="パス_6167" data-name="パス 6167" d="M65.225,52.911c-1.373,0-2.516-1.265-3.82-1.583-1.535-.374-3.057-.677-4.569-1.159-1.6-.51-2.965-1.461-4.623-1.835-1.581-.355-2.89-1.229-4.413-1.711a41.668,41.668,0,0,1-4.68-1.554c-1.164-.523-2.91-.768-3.846-1.666-.992-.949-.342-2.5.525-3.291,1.136-1.03,2.475-.64,3.705-.012.5.253.972.543,1.443.84a7.405,7.405,0,0,0,1.977.554,26.365,26.365,0,0,0,2.855.74,16.143,16.143,0,0,1,1.938.681c.6.178,1.187.259,1.773.494a20.276,20.276,0,0,1,1.955.563,10,10,0,0,0,2.314.9,34.219,34.219,0,0,1,3.67,1.191,33.2,33.2,0,0,1,4.1,1.419c1.083.567,1.142,1.724,1.052,2.814-.062.772-.258,2.61-1.354,2.61" transform="translate(13.583 13.83)" fill="#fff"/>
    <path id="パス_6168" data-name="パス 6168" d="M89.484,107c-.862,0-1.666-.466-2.537-.258a3.612,3.612,0,0,1-1.912-.217,23.482,23.482,0,0,0-3.029-.273c-1.421-.251-2.824-.612-4.245-.852a16.217,16.217,0,0,0-2.613-.323,8.391,8.391,0,0,1-3.084-.955c-.752-.267-1.568-.292-2.325-.578a21.415,21.415,0,0,1-2.352-1.136,39.285,39.285,0,0,0-3.823-1.642,27.846,27.846,0,0,1-4.552-2.83,58,58,0,0,1-4.569-3.769c-1.495-1.2-2.8-2.555-4.245-3.809a16.392,16.392,0,0,1-3.611-4.113c-.7-1.217-2.44-2.778-2.34-4.286.1-1.592,2.094-2.7,3.019-3.8a35.074,35.074,0,0,0,3.045-3.438c1.082-1.7,2.86-2.88,4.191-4.383A20.617,20.617,0,0,0,57.254,66.7c.916-1.672,2.352-3.129,3.419-4.727.305-.456.61-.91.924-1.361a19.543,19.543,0,0,1-4.487-1.3,14.253,14.253,0,0,0-5.222-1.84c-.637-.077-1.173-.4-1.793-.531a6.473,6.473,0,0,1-1.919-.554c-1.895-1.009-4.013-1.454-5.985-2.271-.768-.319-1.468-.767-2.229-1.094-.744-.319-1.72-.275-2.277-.936-.787-.932-1.249-3.168.093-3.862,1.407-.728,3.3.4,4.594.887,1.619.608,3.4.708,4.988,1.33a11.914,11.914,0,0,0,2.3.732,6,6,0,0,1,1.78,1,18.458,18.458,0,0,0,3.508,1.265,45.3,45.3,0,0,0,4.5,1.357,28.04,28.04,0,0,1,5.534,2.15c1.144.5,2.6.98,3.37,2.038s-2.116,3.4-2.613,4.289a14.706,14.706,0,0,1-1.595,2.478c-.563.648-1.217,1.169-1.722,1.873-1.153,1.6-2.252,3.2-3.353,4.818-1.766,2.6-4.3,4.679-6.526,6.881-.924.938-2.556,2.028-2.023,3.572a7.113,7.113,0,0,0,1.333,2.03,13.023,13.023,0,0,0,1.62,2.127c1.2,1,2.2,2.294,3.445,3.229,1.264.944,2.489,1.95,3.753,2.886A39.107,39.107,0,0,0,64.213,95.4c1.464.856,2.764,2.073,4.424,2.4.7.14,1.176.8,1.778,1.137a6.812,6.812,0,0,0,2.374.708c1.691.257,3.218,1.028,4.875,1.372,1.7.355,3.453.509,5.154.925a20.7,20.7,0,0,0,5.634.494c1.117-.035,2.246.015,3.361-.059a16.679,16.679,0,0,0,2.691-.629c1.04-.242,2.115-.277,3.164-.482a21.128,21.128,0,0,0,4.971-1.572c1.61-.78,3.352-1.21,4.938-2.007a37.509,37.509,0,0,0,4.561-3c1.5-1.048,3.021-2.044,4.426-3.214,1.35-1.122,2.258-2.593,3.68-3.638s2.248-3.168,3.218-4.615c1.065-1.593,2.273-3.092,3.258-4.736.458-.763.45-1.727.992-2.444a12.219,12.219,0,0,0,1.321-2.105,14.354,14.354,0,0,0,.866-2.194c.13-.635-.7-1.238-1.1-1.593-.513-.465-1.079-.864-1.631-1.277a13.868,13.868,0,0,1-1.8-1.839c-.509-.54-1.222-.821-1.753-1.346-.455-.451-.855-.949-1.325-1.387-.377-.352-1.273-.674-1.25-1.294.028-.782.941-1.395,1.523-1.769,1.574-1.013,3.523-1.335,5.22-2.1a33.672,33.672,0,0,0,4.675-2.537c1.149-.759,2.8-1.838,4.26-1.446,1,.267,1.487,2.494,1.08,3.312-.34.685-1.268,1.079-1.867,1.495a8.277,8.277,0,0,1-2.043,1.245c-1.623.525-2.982,1.522-4.591,2.081-.32.112-1.011.347-1.025.772-.022.339.872.7,1.109.864a10.431,10.431,0,0,1,2.525,2.216,4.433,4.433,0,0,0,1.319,1.011,8.388,8.388,0,0,1,1.6,1.507c1.059,1.2-.6,3.412-1.152,4.547-.77,1.6-1.286,3.326-2.159,4.873s-1.657,3.133-2.5,4.7c-.731,1.356-1.768,2.464-2.624,3.735a31.879,31.879,0,0,1-3.269,3.974c-1.114,1.19-2.44,2.127-3.538,3.353a9.3,9.3,0,0,1-1.943,1.768,22.351,22.351,0,0,0-2.055,1.16c-1.144.878-2.351,1.62-3.518,2.447a14.639,14.639,0,0,1-2,1.584c-.735.342-1.593.328-2.3.737-2.736,1.6-5.825,2.237-8.869,2.976-.714.173-1.439.147-2.146.362a7.951,7.951,0,0,1-2.135.462c-1.738.046-3.408.663-5.142.663" transform="translate(12.937 16.812)" fill="#fff"/>
    <path id="パス_6169" data-name="パス 6169" d="M80.048,100.083c-1.385,0-3.218-.458-3.158-2.115a20.462,20.462,0,0,0,.234-2.341c-.082-1.091-.208-2.269-.236-3.352a22.515,22.515,0,0,1,.239-2.977,19.051,19.051,0,0,0-.084-2.468c-.014-.979.323-1.89.248-2.875-.069-.945.117-1.773.107-2.68,0-.481-.308-.886-.312-1.371s-.011-.983-.018-1.473c-.012-.949.814-3.056-.9-2.169a14.924,14.924,0,0,0-3.183,2.7A36.034,36.034,0,0,0,69.8,81.928c-.531.65-.554,1.211-1.23,1.77a2.835,2.835,0,0,0-.76,2.025,3.189,3.189,0,0,1-.664,1.832c-.49.581-1.231.983-1.573,1.68-.6,1.226-1.319,2.842-3.063,2.57-1.781-.277-1.936-1.988-1.492-3.481,1.01-3.391,3.391-6.232,5.18-9.2a23.281,23.281,0,0,1,6.973-6.983,15.557,15.557,0,0,1,4.721-1.892c-2.645-1.6-5.879-2.009-7.991-4.494a18.163,18.163,0,0,1-2.8-4.2c-.735-1.693-.444-3.307-.625-5.064-.15-1.442.756-3.416,1.342-4.713a13.709,13.709,0,0,1,3.2-4.406c2.309-2.136,5.968-3.977,9.177-3.645a13.218,13.218,0,0,1,2.771.284c.8.257,1.579.618,2.385.884a12.221,12.221,0,0,1,4.264,2.987,12.021,12.021,0,0,1,2.973,3.863A11.417,11.417,0,0,1,93.62,56.7a9.482,9.482,0,0,1-.753,4.324,25.607,25.607,0,0,1-2.513,4.22A8.843,8.843,0,0,1,86.245,68.5c-.44.162-3.7.934-3.692,1.493,0,.489.448.342.863.483a14.344,14.344,0,0,1,1.807.856,6.63,6.63,0,0,0,1.641.623c.641.135,1.038.851,1.684,1.068,2.034.677,3.007,2.412,4.151,4.114a18.552,18.552,0,0,1,2.683-2.667c.516-.52,1.2-.6,1.649-1.245a7.419,7.419,0,0,1,1.949-1.835c.868-.578,2.258,2.29,2.464,2.894.524,1.522-1.627,2.015-2.468,2.888-.61.635-1.1,1.375-1.723,2-.477.475-1.051.832-1.529,1.313-.886.883,1.138,2.607,1.541,3.539.8,1.842,2.111,3.388,3.046,5.153.879,1.65.032,2.616-1.516,3.168-1.68.6-2.575-1.335-3.365-2.425a15.99,15.99,0,0,1-1.6-2.418,15.429,15.429,0,0,0-1.412-2.72c-.456-.633-.752-1.364-1.2-2a24.179,24.179,0,0,0-1.676-1.855c-.487-.555-.668-1.348-1.2-1.843-.676-.625-1.7-.709-2.352-1.372-.336-.338-3.63-2.517-3.642-1.429-.011.89.078,1.778.078,2.67A15.264,15.264,0,0,0,82.3,82.1c.189.884-.093,1.778.008,2.668.105.922.262,1.836.355,2.757.22,2.182-.424,4.339-.084,6.509.335,2.089.442,6.044-2.526,6.044M80.8,48.389c-1.957,0-4.237.2-5.833,1.427-1.909,1.466-3.245,3.16-3.353,5.6a7.409,7.409,0,0,0,.309,3.4,11.843,11.843,0,0,0,1.572,3.242c1.442,1.657,4.806,2.7,6.935,2.814,4.237.234,7.747-3.713,8.367-7.69a13.571,13.571,0,0,0-.08-3.2,4.013,4.013,0,0,0-1.607-3.022,10.562,10.562,0,0,0-6.31-2.582" transform="translate(21.301 15.303)" fill="#fff"/>
    <path id="パス_6170" data-name="パス 6170" d="M85.005,51.025c.138.419-.116-.373,0,0" transform="translate(29.768 17.839)" fill="#fff"/>
    <path id="パス_6171" data-name="パス 6171" d="M77.059,59.032h0" transform="translate(26.994 20.68)" fill="#fff"/>
  </g>
</svg>
